<svg id="SvgjsSvg1012" width="288" height="288" xmlns="http://www.w3.org/2000/svg" version="1.1" xmlns:xlink="http://www.w3.org/1999/xlink" xmlns:svgjs="http://svgjs.com/svgjs"><defs id="SvgjsDefs1013"></defs><g id="SvgjsG1014"><svg xmlns="http://www.w3.org/2000/svg" viewBox="0 0 48 48" width="288" height="288"><path fill="none" d="M0 0h48v48H0z"></path><path d="M8 32c0 1.77.78 3.34 2 4.44V40c0 1.1.9 2 2 2h2a2 2 0 0 0 2-2v-2h16v2a2 2 0 0 0 2 2h2c1.1 0 2-.9 2-2v-3.56c1.22-1.1 2-2.67 2-4.44V12c0-7-7.16-8-16-8S8 5 8 12v20zm7 2c-1.66 0-3-1.34-3-3s1.34-3 3-3 3 1.34 3 3-1.34 3-3 3zm18 0c-1.66 0-3-1.34-3-3s1.34-3 3-3 3 1.34 3 3-1.34 3-3 3zm3-12H12V12h24v10z" fill="#eeeeee" class="color000 svgShape"></path></svg></g></svg>