<svg width="156" height="203" viewBox="0 0 156 203" fill="none" xmlns="http://www.w3.org/2000/svg">
<path d="M46.0049 76.342L2.46485 67.1679L1.899 67.0489C1.61085 66.9878 1.31089 67.0074 1.03361 67.1053C0.756325 67.2033 0.512984 67.3758 0.33157 67.6028C0.150155 67.8299 0.0380288 68.1023 0.00809365 68.3889C-0.0218415 68.6754 0.0316325 68.9644 0.162353 69.2225L17.4495 103.513C17.5614 103.734 17.7258 103.924 17.929 104.07C18.1321 104.215 18.368 104.31 18.6168 104.348C18.8664 104.386 19.1217 104.364 19.3606 104.284C19.5996 104.204 19.815 104.068 19.9882 103.889L31.9955 91.5223C32.0809 91.4321 32.1845 91.3601 32.2998 91.311C32.415 91.2618 32.5395 91.2364 32.6653 91.2365C32.8362 91.2342 33.0046 91.2773 33.1525 91.3612C33.3003 91.4452 33.4219 91.5668 33.5044 91.7131L35.9639 96.1566C36.1209 96.4528 36.3748 96.6893 36.6853 96.8283C36.9958 96.9672 37.345 97.0008 37.6772 96.9235L37.6895 96.9208C38.0258 96.8513 38.3283 96.6732 38.5486 96.4154C38.7688 96.1576 38.8938 95.8349 38.9036 95.4993L39.3963 85.2422C39.4022 85.1143 39.4349 84.9888 39.4925 84.8737C39.5542 84.7598 39.6381 84.6587 39.7393 84.576L46.6664 79.0218C46.8941 78.8392 47.0645 78.5977 47.1582 78.3249C47.2518 78.0521 47.2648 77.759 47.1958 77.4793C47.1267 77.1996 46.9784 76.9446 46.7678 76.7434C46.5571 76.5423 46.2927 76.4032 46.0049 76.342ZM46.2708 78.5496L39.3438 84.1038C39.2535 84.1749 39.1717 84.2556 39.0999 84.3445L2.38615 68.0809C2.35377 68.0661 2.31999 68.0546 2.2853 68.0463C2.14369 68.0106 1.99377 68.0245 1.86148 68.0853C1.72919 68.1462 1.62284 68.2503 1.56083 68.3797C1.49882 68.5091 1.48504 68.6555 1.52188 68.7938C1.55871 68.932 1.64385 69.0533 1.76257 69.1367L31.9495 90.796C31.7963 90.8738 31.658 90.9768 31.5407 91.1005L19.5336 103.467C19.4294 103.574 19.3002 103.655 19.1572 103.703C19.0141 103.751 18.8613 103.764 18.7118 103.742C18.5622 103.72 18.4204 103.663 18.2982 103.576C18.1761 103.489 18.0773 103.374 18.0102 103.242L0.723053 68.951C0.645771 68.7961 0.614591 68.623 0.633074 68.4516C0.651557 68.2802 0.718953 68.1174 0.827588 67.9816C0.936223 67.8457 1.08173 67.7425 1.24752 67.6835C1.41332 67.6245 1.59274 67.6122 1.76534 67.648L2.34462 67.7703L45.8711 76.9411C46.0439 76.9777 46.2027 77.061 46.3293 77.1816C46.4559 77.3022 46.5451 77.4552 46.5868 77.623C46.6286 77.7909 46.621 77.9668 46.5652 78.1307C46.5093 78.2946 46.4073 78.4397 46.2708 78.5496Z" fill="#00ADB5"/>
<path d="M54.8189 201.006C50.9006 199.953 46.1321 195.576 47.153 189.56C47.6593 186.576 49.6026 184.645 51.6175 183.396C54.4047 181.669 57.5789 181.018 60.6378 180.853C64.1661 180.664 67.6905 181.142 71.1924 181.648C74.6495 182.147 78.107 182.594 81.5796 182.867C95.1679 183.927 108.839 182.918 122.121 179.874C125.399 179.121 128.658 178.239 131.896 177.226C134.966 176.328 137.966 175.213 140.876 173.889C144.726 172.051 150.988 168.473 150.478 161.848C150.207 158.335 148.127 155.53 146.028 153.575C143.491 151.212 140.555 149.657 137.68 148.147C124.305 141.123 110.903 134.182 97.5152 127.201C94.3905 125.571 91.2451 123.986 88.2126 122.076C85.3735 120.288 82.5476 118.212 80.2628 115.34C78.2672 112.832 76.4839 109.466 76.5469 105.702C76.599 102.581 78.0274 99.932 79.7768 97.9525C84.108 93.0517 90.2348 91.0646 95.7722 90.0237C102.652 88.7306 109.631 88.7373 116.515 87.4886C122.074 86.4803 128.013 84.5339 132.534 79.9729C134.446 78.1177 135.799 75.7678 136.439 73.1885C137.016 70.487 136.735 67.6739 135.636 65.1378C134.411 62.2292 132.458 59.9122 130.404 58.0149C128.044 55.8658 125.368 54.088 122.469 52.7432C116.363 49.85 109.943 48.3436 103.689 46.1233C100.622 45.0345 97.5233 43.8405 94.6753 41.9702C92.2624 40.3856 89.634 38.2498 88.2916 35.0736C85.5219 28.5205 92.1295 24.6149 95.8736 23.1355C98.4184 22.1757 101.04 21.4295 103.71 20.9048C104.274 20.7843 104.035 19.6637 103.473 19.7836C100.662 20.3285 97.9077 21.1283 95.2439 22.173C92.9861 23.1058 90.6566 24.3317 88.8831 26.4412C88.0756 27.3937 87.4786 28.5044 87.1309 29.7011C86.7831 30.8979 86.6922 32.154 86.8643 33.388C87.334 36.5322 89.376 38.955 91.2937 40.7098C93.8297 43.0304 96.7211 44.5459 99.6528 45.7813C102.74 47.0824 105.893 48.0963 109.046 49.0909C115.344 51.0784 121.925 52.8495 127.611 57.0785C131.588 60.0369 136.991 65.5838 135.668 72.4592C135.081 75.5112 133.298 77.8974 131.373 79.6525C129.113 81.6528 126.506 83.2287 123.68 84.3037C111.081 89.346 97.2138 85.7401 84.9388 92.5887C80.7652 94.9172 75.6958 99.1568 75.655 105.827C75.6338 109.293 77.0306 112.471 78.7575 114.983C80.8259 117.992 83.5043 120.216 86.2294 122.076C89.0988 123.962 92.0782 125.678 95.1519 127.213C98.5097 128.967 101.868 130.718 105.227 132.467L125.613 143.098L135.742 148.38C138.833 149.992 142.004 151.538 144.815 153.905C147.116 155.842 149.835 159.021 149.6 162.968C149.414 166.103 147.32 168.365 145.406 169.877C142.928 171.836 140.145 173.103 137.375 174.155C134.181 175.369 130.934 176.376 127.681 177.282C121.017 179.134 114.215 180.458 107.341 181.241C100.484 182.026 93.5756 182.282 86.6785 182.007C83.1937 181.867 79.7142 181.59 76.2402 181.175C72.6592 180.746 69.0936 180.085 65.5034 179.792C62.256 179.527 58.9773 179.589 55.7792 180.441C53.1089 181.152 50.2878 182.421 48.2608 184.896C46.7668 186.785 46.0186 189.152 46.1571 191.552C46.2944 193.947 47.153 196.245 48.6213 198.148C50.1127 200.091 52.2083 201.49 54.5821 202.127C55.1419 202.277 55.3812 201.157 54.8189 201.006Z" fill="#EEEEEE"/>
<path d="M136.225 75.8028C139.866 75.8028 142.817 72.6057 142.817 68.662C142.817 64.7182 139.866 61.5211 136.225 61.5211C132.585 61.5211 129.634 64.7182 129.634 68.662C129.634 72.6057 132.585 75.8028 136.225 75.8028Z" fill="#EEEEEE"/>
<path d="M120.356 0.28336L101.979 8.49389C101.167 8.85763 100.529 9.5374 100.205 10.3841C99.88 11.2307 99.8955 12.1751 100.248 13.0101L105.954 26.5006C106.308 27.3348 106.969 27.9906 107.793 28.3242C108.617 28.6578 109.536 28.6419 110.348 28.28L128.725 20.0695C129.537 19.7058 130.175 19.026 130.5 18.1793C130.824 17.3327 130.809 16.3882 130.457 15.5533L124.75 2.06273C124.396 1.22858 123.735 0.572777 122.911 0.239195C122.087 -0.0943864 121.168 -0.0785026 120.356 0.28336ZM121.117 2.0821C121.227 2.03352 121.342 1.99937 121.46 1.98044L115.247 14.0278L102.486 10.4388C102.566 10.3814 102.651 10.3324 102.74 10.2926L121.117 2.0821ZM127.964 18.2708L109.587 26.4813C109.239 26.6364 108.845 26.6432 108.492 26.5002C108.139 26.3572 107.856 26.0762 107.704 25.7187L102.049 12.3493L115.481 16.127C115.69 16.1858 115.912 16.1696 116.111 16.0812C116.31 15.9927 116.474 15.8372 116.576 15.6403L123.079 3.03047L128.706 16.3352C128.857 16.6931 128.864 17.0978 128.725 17.4607C128.586 17.8235 128.312 18.1149 127.964 18.2708Z" fill="#E6E6E6"/>
<path d="M100.521 114.254C109.926 114.254 117.549 106.876 117.549 97.7746C117.549 88.6736 109.926 81.2958 100.521 81.2958C91.1167 81.2958 83.493 88.6736 83.493 97.7746C83.493 106.876 91.1167 114.254 100.521 114.254Z" fill="#EEEEEE"/>
<path d="M97.9139 202.141H93.241C92.6954 202.14 92.1723 201.924 91.7865 201.54C91.4008 201.157 91.1837 200.636 91.1831 200.093V161.343C91.1837 160.8 91.4008 160.28 91.7865 159.896C92.1723 159.512 92.6954 159.296 93.241 159.296H97.9139C98.4595 159.296 98.9826 159.512 99.3684 159.896C99.7542 160.28 99.9712 160.8 99.9718 161.343V200.093C99.9712 200.636 99.7542 201.157 99.3684 201.54C98.9826 201.924 98.4595 202.14 97.9139 202.141Z" fill="#00ADB5"/>
<path d="M106.703 202.141H102.03C101.484 202.14 100.961 201.924 100.575 201.54C100.189 201.157 99.9725 200.636 99.9718 200.093V161.343C99.9725 160.8 100.189 160.28 100.575 159.896C100.961 159.512 101.484 159.296 102.03 159.296H106.703C107.248 159.296 107.771 159.512 108.157 159.896C108.543 160.28 108.76 160.8 108.761 161.343V200.093C108.76 200.636 108.543 201.157 108.157 201.54C107.771 201.924 107.248 202.14 106.703 202.141Z" fill="#00ADB5"/>
<path d="M125.679 157.099C125.475 157.098 125.272 157.069 125.077 157.01C124.819 156.934 124.58 156.808 124.372 156.641C124.165 156.474 123.994 156.268 123.868 156.036L105.704 122.614C105.578 122.382 105.5 122.128 105.474 121.867C105.448 121.605 105.476 121.342 105.555 121.091C105.634 120.84 105.762 120.606 105.933 120.404C106.105 120.201 106.315 120.034 106.552 119.911L110.659 117.783C110.897 117.66 111.157 117.583 111.424 117.558C111.692 117.533 111.962 117.56 112.219 117.637C112.476 117.714 112.715 117.84 112.923 118.007C113.13 118.174 113.302 118.38 113.428 118.611L131.592 152.033C131.718 152.265 131.796 152.519 131.822 152.78C131.847 153.042 131.82 153.305 131.741 153.556C131.662 153.807 131.534 154.041 131.362 154.243C131.191 154.446 130.981 154.613 130.743 154.736L126.636 156.864C126.342 157.018 126.013 157.098 125.679 157.099Z" fill="#EEEEEE"/>
<path d="M87.5094 126.338C87.2651 126.338 87.0228 126.292 86.7943 126.201L50.7513 111.928C50.5013 111.829 50.2723 111.679 50.0776 111.488C49.8828 111.296 49.726 111.066 49.6162 110.81C49.5064 110.555 49.4457 110.279 49.4376 109.999C49.4294 109.719 49.474 109.44 49.5688 109.178L51.1994 104.645C51.3918 104.116 51.7762 103.689 52.2684 103.456C52.7607 103.224 53.3207 103.205 53.8259 103.405L89.8679 117.674C90.372 117.875 90.7797 118.278 91.0018 118.793C91.224 119.308 91.2427 119.894 91.0537 120.424L89.4201 124.958C89.2725 125.364 89.0108 125.713 88.6696 125.959C88.3284 126.206 87.9238 126.338 87.5094 126.338Z" fill="#EEEEEE"/>
<path d="M110.222 117.549H89.7215C88.7085 117.549 87.8873 118.39 87.8873 119.427V164.01C87.8873 165.047 88.7085 165.887 89.7215 165.887H110.222C111.235 165.887 112.056 165.047 112.056 164.01V119.427C112.056 118.39 111.235 117.549 110.222 117.549Z" fill="#00ADB5"/>
<path d="M113.055 80.9097C114.058 83.055 115.018 85.6479 113.939 87.9428C113.543 88.8698 112.8 89.6154 111.861 90.0281C110.748 90.4607 109.535 90.2139 108.505 89.6909C106.334 88.5897 104.935 86.5435 102.997 85.1417C102.115 84.472 101.072 84.0336 99.9664 83.8684C98.693 83.7066 97.4289 83.9994 96.1834 84.2254C94.8587 84.4658 93.4897 84.5927 92.2637 83.9379C91.1851 83.3233 90.3411 82.3832 89.859 81.2595C89.6065 80.7132 88.7818 81.1869 89.0329 81.7303C90.0754 83.9863 92.2313 85.5236 94.8216 85.3458C96.1923 85.2517 97.5161 84.8203 98.8891 84.7585C100.142 84.7181 101.37 85.1009 102.366 85.8421C104.494 87.3207 105.938 89.5914 108.379 90.6653C109.53 91.172 110.849 91.3832 112.064 90.9468C113.111 90.5496 113.983 89.8089 114.531 88.8521C116.133 86.1632 115.104 83.0548 113.881 80.439C113.626 79.8936 112.802 80.367 113.055 80.9097Z" fill="#2F2E41"/>
<path d="M102.151 103.268C101.103 103.238 99.7981 103.2 98.7934 102.453C98.4941 102.222 98.2483 101.926 98.073 101.588C97.8977 101.25 97.7973 100.876 97.7787 100.494C97.7605 100.222 97.8043 99.9503 97.9066 99.6988C98.0089 99.4473 98.167 99.2233 98.3685 99.0443C98.8931 98.5929 99.6594 98.4869 100.486 98.7342L99.63 92.3693L100.259 92.2817L101.265 99.7641L100.74 99.5195C100.132 99.2355 99.2968 99.0908 98.7779 99.5371C98.6505 99.6537 98.5513 99.7987 98.4879 99.9607C98.4246 100.123 98.3987 100.297 98.4125 100.471C98.4279 100.756 98.5033 101.033 98.6335 101.285C98.7638 101.538 98.9459 101.758 99.1674 101.932C99.9495 102.514 100.989 102.589 102.169 102.622L102.151 103.268Z" fill="#2F2E41"/>
<path d="M96.6761 93.3803H93.3803V94.4789H96.6761V93.3803Z" fill="#2F2E41"/>
<path d="M106.563 93.3803H103.268V94.4789H106.563V93.3803Z" fill="#2F2E41"/>
<path d="M87.1176 126.206L72.7037 121.286C72.2542 121.133 71.8747 120.792 71.644 120.333C71.4132 119.875 71.349 119.335 71.4646 118.825L73.1473 111.403C73.2138 111.109 73.3375 110.836 73.5095 110.603C73.6815 110.37 73.8975 110.182 74.1421 110.053C74.3867 109.925 74.6536 109.858 74.9238 109.859C75.1941 109.86 75.4608 109.928 75.7048 110.057L90.0012 117.665C90.4543 117.857 90.8208 118.243 91.0204 118.737C91.2201 119.231 91.2366 119.794 91.0664 120.302L89.4766 125.014C89.3047 125.522 88.9597 125.933 88.5175 126.156C88.0752 126.38 87.5717 126.398 87.1176 126.206Z" fill="#00ADB5"/>
<path d="M106.779 122.383L113.046 136.237C113.241 136.669 113.597 137.009 114.038 137.188C114.479 137.367 114.973 137.369 115.416 137.196L121.868 134.668C122.123 134.568 122.352 134.414 122.54 134.215C122.727 134.017 122.868 133.779 122.952 133.52C123.037 133.261 123.062 132.986 123.027 132.716C122.992 132.446 122.897 132.187 122.749 131.958L114.083 118.528C113.852 118.097 113.459 117.774 112.989 117.631C112.52 117.487 112.012 117.535 111.577 117.763L107.549 119.889C107.114 120.118 106.789 120.51 106.645 120.978C106.501 121.446 106.549 121.951 106.779 122.383Z" fill="#00ADB5"/>
<path d="M46.0049 76.342L2.46485 67.1679L1.899 67.0489C1.61085 66.9878 1.31089 67.0074 1.03361 67.1053C0.756325 67.2033 0.512984 67.3758 0.33157 67.6028C0.150155 67.8299 0.0380288 68.1023 0.00809365 68.3889C-0.0218415 68.6754 0.0316325 68.9644 0.162353 69.2225L17.4495 103.513C17.5614 103.734 17.7258 103.924 17.929 104.07C18.1321 104.215 18.368 104.31 18.6168 104.348C18.8664 104.386 19.1217 104.364 19.3606 104.284C19.5996 104.204 19.815 104.068 19.9882 103.889L31.9955 91.5223C32.0809 91.4321 32.1845 91.3601 32.2998 91.311C32.415 91.2618 32.5395 91.2364 32.6653 91.2365C32.8362 91.2342 33.0046 91.2773 33.1525 91.3612C33.3003 91.4452 33.4219 91.5668 33.5044 91.7131L35.9639 96.1566C36.1209 96.4528 36.3748 96.6893 36.6853 96.8283C36.9958 96.9672 37.345 97.0008 37.6772 96.9235L37.6895 96.9208C38.0258 96.8513 38.3283 96.6732 38.5486 96.4154C38.7688 96.1576 38.8938 95.8349 38.9036 95.4993L39.3963 85.2422C39.4022 85.1143 39.4349 84.9888 39.4925 84.8737C39.5542 84.7598 39.6381 84.6587 39.7393 84.576L46.6664 79.0218C46.8941 78.8392 47.0645 78.5977 47.1582 78.3249C47.2518 78.0521 47.2648 77.759 47.1958 77.4793C47.1267 77.1996 46.9784 76.9446 46.7678 76.7434C46.5571 76.5423 46.2927 76.4032 46.0049 76.342ZM46.2708 78.5496L39.3438 84.1038C39.2535 84.1749 39.1717 84.2556 39.0999 84.3445C39.0352 84.4236 38.9793 84.5092 38.9332 84.5998C38.8849 84.6926 38.8468 84.7901 38.8196 84.8907L38.8203 84.8937C38.7916 84.9984 38.775 85.1061 38.771 85.2145L38.2784 95.4715C38.2743 95.6732 38.2 95.8675 38.0678 96.0224C37.9356 96.1774 37.7534 96.2838 37.551 96.3242L37.5449 96.3255C37.3455 96.3739 37.1353 96.3551 36.9482 96.2721C36.7612 96.1891 36.6083 96.0468 36.5144 95.8684L34.0543 91.422C33.9275 91.1932 33.743 91 33.5183 90.8605C33.2937 90.721 33.0362 90.6399 32.7704 90.6248L32.7674 90.6255C32.7316 90.6238 32.696 90.6221 32.6611 90.6234C32.413 90.6235 32.1688 90.6828 31.9495 90.796C31.7963 90.8738 31.658 90.9768 31.5407 91.1005L19.5336 103.467C19.4294 103.574 19.3003 103.655 19.1572 103.703C19.0141 103.751 18.8613 103.764 18.7118 103.742C18.5622 103.72 18.4204 103.663 18.2982 103.576C18.1761 103.489 18.0773 103.374 18.0102 103.242L0.723053 68.951C0.645771 68.7961 0.614591 68.623 0.633074 68.4516C0.651557 68.2802 0.718953 68.1174 0.827588 67.9816C0.936223 67.8457 1.08173 67.7425 1.24752 67.6835C1.41332 67.6245 1.59274 67.6122 1.76534 67.648L2.34462 67.7703L45.8711 76.9411C46.0439 76.9777 46.2027 77.061 46.3293 77.1816C46.4559 77.3022 46.5451 77.4552 46.5868 77.623C46.6286 77.7909 46.621 77.9668 46.5652 78.1307C46.5093 78.2946 46.4073 78.4397 46.2708 78.5496Z" fill="#EEEEEE"/>
</svg>
