<svg width="219" height="221" viewBox="0 0 219 221" fill="none" xmlns="http://www.w3.org/2000/svg">
<g clip-path="url(#clip0_232_215)">
<path d="M109.5 220.521C169.975 220.521 219 217.645 219 214.098C219 210.551 169.975 207.675 109.5 207.675C49.0248 207.675 0 210.551 0 214.098C0 217.645 49.0248 220.521 109.5 220.521Z" fill="#E6E6E6"/>
<path d="M124.132 50.878H122.954V18.6516C122.954 13.7049 120.986 8.96078 117.484 5.46293C113.981 1.96507 109.23 0 104.276 0H35.9054C30.9517 0 26.201 1.96507 22.6982 5.46293C19.1955 8.96078 17.2277 13.7049 17.2277 18.6516V195.447C17.2277 200.394 19.1955 205.138 22.6982 208.635C26.201 212.133 30.9517 214.098 35.9054 214.098H104.276C109.23 214.098 113.981 212.133 117.484 208.635C120.986 205.138 122.954 200.394 122.954 195.447V73.8171H124.132V50.878Z" fill="#393E46"/>
<path d="M118.979 18.782V195.317C118.979 199.011 117.509 202.554 114.893 205.166C112.277 207.778 108.729 209.246 105.03 209.246H36.3308C32.6315 209.246 29.0838 207.778 26.468 205.166C23.8522 202.554 22.3826 199.011 22.3824 195.317V18.782C22.3825 15.0877 23.8521 11.5448 26.468 8.93255C29.0839 6.32032 32.6318 4.85275 36.3312 4.85266H44.6654C44.2558 5.85756 44.0998 6.94757 44.2111 8.02681C44.3224 9.10604 44.6976 10.1414 45.3037 11.0419C45.9098 11.9423 46.7281 12.6803 47.6868 13.1907C48.6455 13.7012 49.7151 13.9686 50.8016 13.9694H89.9707C91.0572 13.9687 92.1269 13.7013 93.0856 13.1908C94.0443 12.6804 94.8628 11.9425 95.4689 11.042C96.075 10.1416 96.4502 9.10615 96.5615 8.02689C96.6728 6.94763 96.5168 5.85759 96.1072 4.85266H105.03C108.729 4.85275 112.277 6.32032 114.893 8.93255C117.509 11.5448 118.979 15.0877 118.979 18.782Z" fill="#EEEEEE"/>
<path d="M118.979 156.714V196.216C118.979 204.228 112.734 210.723 105.03 210.724H36.3308C28.6272 210.724 22.382 204.229 22.3817 196.216V160.565C34.2926 146.023 51.5139 137.332 69.8677 136.601C88.2216 135.869 106.032 143.163 118.979 156.714Z" fill="#393E46" fill-opacity="0.9"/>
<path opacity="0.2" d="M70.7553 195.681C81.9815 195.681 91.0821 186.593 91.0821 175.382C91.0821 164.172 81.9815 155.084 70.7553 155.084C59.5291 155.084 50.4285 164.172 50.4285 175.382C50.4285 186.593 59.5291 195.681 70.7553 195.681Z" fill="#00BFA6"/>
<path d="M70.7554 191.726C79.7947 191.726 87.1225 184.409 87.1225 175.382C87.1225 166.356 79.7947 159.038 70.7554 159.038C61.7161 159.038 54.3882 166.356 54.3882 175.382C54.3882 184.409 61.7161 191.726 70.7554 191.726Z" fill="#00ADB5"/>
<path d="M68.8464 182.37L63.0781 174.964L66.4326 172.359L69.1635 175.866L78.3895 166.14L81.4748 169.059L68.8464 182.37Z" fill="white"/>
<path d="M157.733 149.961C163.594 149.961 168.346 145.216 168.346 139.363C168.346 133.51 163.594 128.766 157.733 128.766C151.872 128.766 147.121 133.51 147.121 139.363C147.121 145.216 151.872 149.961 157.733 149.961Z" fill="#393E46"/>
<path d="M162.034 198.856L162.851 202.707L178.117 201.391L176.911 195.707L162.034 198.856Z" fill="#FFB8B8"/>
<path d="M160.845 210.892L158.277 198.788L162.96 197.796L164.536 205.224C164.667 205.839 164.675 206.472 164.56 207.09C164.445 207.707 164.209 208.295 163.866 208.822C163.524 209.348 163.08 209.802 162.562 210.157C162.044 210.512 161.46 210.762 160.845 210.892Z" fill="#393E46"/>
<path d="M152.47 198.65L150.752 202.194L136.249 197.262L138.785 192.033L152.47 198.65Z" fill="#EEEEEE"/>
<path d="M148.512 204.238L151.826 197.404L156.135 199.487L150.735 210.624C149.592 210.071 148.716 209.088 148.299 207.891C147.883 206.693 147.959 205.379 148.512 204.238Z" fill="#393E46"/>
<path d="M123.894 191.652C124.39 191.744 124.901 191.727 125.39 191.601C125.879 191.474 126.335 191.243 126.724 190.922C127.114 190.601 127.428 190.199 127.645 189.743C127.863 189.288 127.977 188.791 127.981 188.286L151.899 166.266L145.959 161.672L124.304 184.775C123.455 184.824 122.654 185.183 122.052 185.783C121.45 186.384 121.089 187.183 121.039 188.031C120.988 188.879 121.251 189.716 121.777 190.384C122.304 191.051 123.057 191.502 123.894 191.652L123.894 191.652Z" fill="#EEEEEE"/>
<path d="M156.401 150.439C160.764 150.439 164.3 146.908 164.3 142.552C164.3 138.196 160.764 134.664 156.401 134.664C152.039 134.664 148.503 138.196 148.503 142.552C148.503 146.908 152.039 150.439 156.401 150.439Z" fill="#EEEEEE"/>
<path d="M163.49 188.916C157.949 188.916 151.277 187.75 147.16 182.982L147.067 182.875L147.164 182.769C147.196 182.735 150.223 179.279 147.2 173.116L143.041 174.393L138.903 168.937L141.196 162.068L150.578 154.522C151.923 153.446 153.559 152.798 155.277 152.661C158.384 152.361 161.412 151.5 164.212 150.12C165.493 149.499 166.904 149.19 168.328 149.221L168.513 149.226C168.946 149.238 169.372 149.338 169.765 149.52C170.158 149.701 170.511 149.961 170.801 150.282C171.091 150.604 171.312 150.981 171.452 151.39C171.591 151.8 171.646 152.234 171.613 152.665C170.977 160.896 169.853 180.778 173.154 187.624L173.239 187.801L173.049 187.849C169.912 188.554 166.706 188.912 163.49 188.915L163.49 188.916Z" fill="#00ADB5"/>
<path d="M148.247 182.877C148.247 182.877 127.344 180.95 125.092 187.052C122.841 193.154 125.414 196.044 129.273 197.328C133.132 198.613 142.458 200.219 142.458 200.219L146.639 195.08L157.573 195.723C157.573 195.723 169.756 202.779 173.125 210.326C173.847 211.959 175 213.366 176.459 214.397C177.919 215.428 179.631 216.045 181.414 216.182C184.115 216.37 186.515 215.351 186.515 211.137C186.515 201.502 173.009 187.694 173.009 187.694L148.247 182.877Z" fill="#393E46"/>
<path d="M132.328 192.351C132.328 192.351 137.795 190.745 146.478 194.92Z" fill="#2F2E41"/>
<path d="M148.522 137.521C151.607 139.402 155.084 140.546 158.684 140.865L157.613 139.584C158.393 139.871 159.214 140.034 160.045 140.065C160.461 140.077 160.874 139.992 161.251 139.816C161.628 139.639 161.958 139.377 162.215 139.051C162.426 138.711 162.55 138.327 162.579 137.929C162.608 137.531 162.54 137.132 162.381 136.766C162.055 136.036 161.547 135.401 160.906 134.923C159.769 134.025 158.427 133.422 157 133.167C155.573 132.912 154.105 133.014 152.727 133.463C151.782 133.745 150.934 134.287 150.283 135.028C149.963 135.401 149.741 135.847 149.636 136.327C149.532 136.807 149.548 137.305 149.684 137.777" fill="#393E46"/>
<path d="M157.677 131.217C159.08 127.963 161.181 125.055 163.831 122.699C165.533 121.19 167.52 119.892 169.763 119.5C172.005 119.108 174.533 119.779 175.908 121.591C177.034 123.072 177.244 125.057 177.12 126.912C176.996 128.767 176.581 130.605 176.62 132.462C176.661 134.359 177.175 136.215 178.117 137.863C179.058 139.51 180.396 140.897 182.01 141.897C183.624 142.898 185.463 143.479 187.359 143.59C189.256 143.7 191.15 143.336 192.869 142.53C190.933 143.599 189.424 145.292 187.627 146.579C185.831 147.866 183.459 148.75 181.417 147.899C179.257 147 178.265 144.553 177.492 142.347L174.04 132.507C173.454 130.834 172.838 129.112 171.641 127.804C170.443 126.496 168.5 125.698 166.853 126.356C165.604 126.854 164.79 128.044 164.077 129.182C163.364 130.319 162.612 131.533 161.408 132.13C160.205 132.727 158.417 132.359 158.024 131.075" fill="#393E46"/>
<path d="M160.386 188.943C160.25 188.943 160.114 188.936 159.979 188.921C159.08 188.82 158.254 188.379 157.671 187.688C157.087 186.998 156.791 186.111 156.843 185.209C156.894 184.307 157.289 183.46 157.948 182.84C158.606 182.22 159.477 181.876 160.381 181.878C160.539 181.879 160.696 181.89 160.852 181.913L171.651 170.434L170.524 166.681L176.183 164.147L177.77 168.02C178.302 169.332 178.396 170.78 178.039 172.15C177.681 173.519 176.891 174.737 175.785 175.623L163.899 185.064C163.912 185.179 163.918 185.295 163.918 185.411C163.918 185.908 163.813 186.399 163.61 186.853C163.407 187.306 163.111 187.712 162.74 188.044C162.095 188.625 161.256 188.946 160.386 188.943Z" fill="#EEEEEE"/>
<path d="M168.828 150.764C169.203 150.597 169.607 150.508 170.016 150.502C170.426 150.496 170.833 150.572 171.212 150.727C171.591 150.882 171.935 151.111 172.224 151.402C172.512 151.693 172.738 152.039 172.889 152.419L178.476 166.499L169.793 172.28L168.828 150.764Z" fill="#00ADB5"/>
<path d="M53.1576 139.434C51.4732 138.986 49.4233 137.125 49.8622 134.566C50.0798 133.297 50.9152 132.476 51.7814 131.944C52.9795 131.21 54.344 130.933 55.659 130.863C57.1757 130.782 58.6907 130.986 60.1961 131.201C61.6823 131.413 63.1686 131.603 64.6613 131.719C70.5026 132.17 76.3796 131.741 82.0892 130.446C83.4984 130.126 84.8991 129.751 86.2914 129.32C87.6108 128.938 88.9007 128.464 90.1513 127.901C91.8066 127.119 94.4985 125.597 94.279 122.78C94.1626 121.286 93.2683 120.092 92.3663 119.261C91.2756 118.256 90.0136 117.595 88.7774 116.952C83.0278 113.965 77.2669 111.013 71.5117 108.044C70.1685 107.351 68.8163 106.676 67.5127 105.864C66.2923 105.104 65.0775 104.221 64.0953 102.999C63.2374 101.933 62.4709 100.501 62.4979 98.9001C62.5203 97.5726 63.1343 96.4461 63.8864 95.6042C65.7482 93.5198 68.382 92.6746 70.7624 92.232C73.7198 91.682 76.7201 91.6848 79.6794 91.1537C82.0689 90.7249 84.622 89.8971 86.5654 87.9572C87.3874 87.1682 87.9689 86.1687 88.244 85.0717C88.4921 83.9228 88.3715 82.7263 87.8988 81.6477C87.3724 80.4106 86.5327 79.4252 85.6497 78.6182C84.6355 77.7042 83.4851 76.9481 82.2386 76.3761C79.6139 75.1456 76.854 74.5049 74.1655 73.5606C72.847 73.0975 71.5152 72.5897 70.2909 71.7942C69.2537 71.1203 68.1238 70.2119 67.5467 68.861C66.356 66.0739 69.1965 64.4128 70.806 63.7836C71.9 63.3754 73.0268 63.058 74.1746 62.8349C74.4173 62.7836 74.3143 62.307 74.0727 62.358C72.8645 62.5897 71.6804 62.9299 70.5353 63.3742C69.5648 63.771 68.5633 64.2924 67.801 65.1896C67.4539 65.5947 67.1972 66.067 67.0477 66.576C66.8982 67.085 66.8592 67.6193 66.9331 68.1441C67.135 69.4814 68.0128 70.5118 68.8372 71.2582C69.9274 72.2451 71.1704 72.8897 72.4306 73.4151C73.7579 73.9685 75.1133 74.3997 76.4683 74.8228C79.1759 75.668 82.0049 76.4213 84.4491 78.22C86.1589 79.4782 88.4816 81.8374 87.9129 84.7615C87.6604 86.0596 86.8937 87.0745 86.0664 87.8209C85.0948 88.6717 83.9743 89.342 82.7595 89.7991C77.3432 91.9437 71.3821 90.4101 66.1054 93.3229C64.3113 94.3132 62.132 96.1164 62.1145 98.9535C62.1054 100.427 62.7058 101.779 63.4482 102.847C64.3374 104.127 65.4887 105.073 66.6602 105.864C67.8937 106.666 69.1744 107.396 70.4958 108.049C71.9392 108.795 73.3829 109.54 74.827 110.284L83.5904 114.805L87.9445 117.051C89.2734 117.737 90.6364 118.395 91.8446 119.401C92.834 120.225 94.0028 121.577 93.9019 123.256C93.8217 124.589 92.9215 125.551 92.0989 126.195C91.0337 127.028 89.8371 127.566 88.6466 128.014C87.2734 128.53 85.8776 128.959 84.4791 129.344C81.6144 130.132 78.6908 130.695 75.7356 131.028C72.7878 131.362 69.8181 131.47 66.8533 131.353C65.3552 131.294 63.8595 131.176 62.3661 131C60.8267 130.817 59.2939 130.536 57.7506 130.412C56.3546 130.299 54.9451 130.325 53.5704 130.687C52.4225 130.99 51.2097 131.53 50.3384 132.582C49.6961 133.386 49.3745 134.393 49.4341 135.413C49.4931 136.432 49.8622 137.409 50.4933 138.218C51.1345 139.045 52.0353 139.64 53.0558 139.911C53.2964 139.975 53.3993 139.498 53.1576 139.434Z" fill="#393E46" fill-opacity="0.9"/>
</g>
<path d="M87.8281 86.6875C89.718 86.6875 91.25 85.1555 91.25 83.2656C91.25 81.3758 89.718 79.8438 87.8281 79.8438C85.9383 79.8438 84.4062 81.3758 84.4062 83.2656C84.4062 85.1555 85.9383 86.6875 87.8281 86.6875Z" fill="#393E46"/>
<path d="M86.9796 48.8822L73.0054 55.1256C72.3882 55.4022 71.903 55.9191 71.6562 56.5629C71.4093 57.2067 71.4211 57.9249 71.6888 58.5598L76.0281 68.8182C76.2972 69.4525 76.8002 69.9512 77.4266 70.2049C78.053 70.4585 78.7518 70.4465 79.3696 70.1713L93.3438 63.9279C93.961 63.6513 94.4462 63.1344 94.6931 62.4905C94.9399 61.8467 94.9281 61.1286 94.6604 60.4936L90.3211 50.2352C90.052 49.6009 89.5491 49.1022 88.9226 48.8486C88.2962 48.5949 87.5974 48.607 86.9796 48.8822ZM87.5582 50.2499C87.6418 50.213 87.7295 50.187 87.8194 50.1726L83.0949 59.3337L73.3912 56.6045C73.4516 56.5609 73.5162 56.5236 73.584 56.4934L87.5582 50.2499ZM92.7653 62.5601L78.791 68.8035C78.5263 68.9214 78.2268 68.9266 77.9583 68.8179C77.6898 68.7092 77.4743 68.4954 77.3589 68.2236L73.0587 58.0573L83.2724 60.9299C83.4314 60.9746 83.6006 60.9623 83.7519 60.8951C83.9032 60.8278 84.0278 60.7096 84.105 60.5598L89.05 50.9711L93.3295 61.0883C93.4442 61.3604 93.4493 61.6681 93.3435 61.9441C93.2377 62.22 93.0298 62.4415 92.7653 62.5601Z" fill="#393E46" fill-opacity="0.9"/>
<defs>
<clipPath id="clip0_232_215">
<rect width="219" height="220.521" fill="white"/>
</clipPath>
</defs>
</svg>
