<svg width="83" height="76" viewBox="0 0 83 76" fill="none" xmlns="http://www.w3.org/2000/svg">
<g clip-path="url(#clip0_277_270)">
<path d="M71.5298 6.98826L1.98303 27.3307L3.82513 33.6779L73.3719 13.3355L71.5298 6.98826Z" fill="#EEEEEE"/>
<path d="M10.2923 56.4859L0.0416252 21.1659C-0.0343702 20.904 -0.00363221 20.6226 0.127072 20.3835C0.257777 20.1444 0.477742 19.9672 0.738583 19.8909L68.5993 0.0415678C68.8602 -0.0344691 69.1404 -0.00350617 69.3785 0.127664C69.6166 0.258833 69.7932 0.479492 69.8694 0.741202L78.9507 32.0322L78.6697 32.1144L69.5884 0.823411C69.5338 0.636553 69.4077 0.479029 69.2377 0.38535C69.0676 0.291672 68.8675 0.269476 68.6812 0.323629L0.820452 20.1729C0.634137 20.2274 0.47702 20.354 0.38366 20.5248C0.290299 20.6956 0.268344 20.8966 0.322623 21.0837L10.5733 56.4037L10.2923 56.4859Z" fill="#EEEEEE"/>
<path d="M63.9307 32.1774C63.7248 32.1771 63.5245 32.11 63.3598 31.986C63.1951 31.8619 63.0748 31.6877 63.017 31.4893L61.2977 25.5653C61.2275 25.3221 61.2561 25.061 61.3774 24.839C61.4988 24.6171 61.7028 24.4525 61.9449 24.3814L67.8458 22.6554C68.088 22.5848 68.3482 22.6136 68.5693 22.7354C68.7904 22.8572 68.9543 23.0621 69.0251 23.3051L70.7444 29.2292C70.8147 29.4723 70.786 29.7335 70.6647 29.9555C70.5434 30.1774 70.3393 30.342 70.0973 30.4131L64.1963 32.1391C64.11 32.1644 64.0206 32.1773 63.9307 32.1774Z" fill="#00ADB5"/>
<path d="M10.1336 21.2749C10.1159 21.214 10.0949 21.1542 10.0706 21.0956C9.90561 20.6936 9.59845 20.367 9.20815 20.1785C8.81785 19.99 8.37193 19.953 7.95609 20.0746C7.54025 20.1961 7.18382 20.4676 6.95528 20.837C6.72675 21.2063 6.64224 21.6474 6.71799 22.0755C6.72863 22.138 6.7428 22.1998 6.76043 22.2607C6.8673 22.6268 7.08944 22.9484 7.39361 23.1773C7.69778 23.4061 8.06761 23.5298 8.4477 23.53C8.61366 23.5304 8.77879 23.5066 8.93796 23.4595C9.38473 23.3284 9.76149 23.0248 9.98562 22.6153C10.2097 22.2058 10.263 21.7237 10.1336 21.2749ZM8.856 23.1774C8.48342 23.2859 8.08316 23.2417 7.74299 23.0545C7.40282 22.8672 7.15052 22.5521 7.0414 22.1784C7.02426 22.1175 7.01057 22.0557 7.00038 21.9933C6.94549 21.6405 7.02046 21.2798 7.21126 20.9786C7.40205 20.6773 7.69562 20.4561 8.03707 20.3564C8.37852 20.2566 8.74446 20.2852 9.06648 20.4366C9.38849 20.5881 9.64452 20.8521 9.7867 21.1794C9.81321 21.2368 9.83523 21.2963 9.85258 21.3571C9.96058 21.7312 9.91628 22.133 9.72943 22.4743C9.54258 22.8156 9.22844 23.0684 8.856 23.1774Z" fill="#00ADB5"/>
<path d="M5.8264 22.534C5.73275 22.2111 5.74174 21.8669 5.85213 21.5494C5.96252 21.2319 6.1688 20.9568 6.44225 20.7626C6.18606 20.7501 5.9306 20.7992 5.69715 20.9058C5.4637 21.0125 5.25901 21.1736 5.10014 21.3757C4.94126 21.5779 4.83281 21.8152 4.7838 22.068C4.7348 22.3207 4.74667 22.5816 4.81841 22.8288C4.89016 23.076 5.01971 23.3024 5.19627 23.4892C5.37284 23.676 5.5913 23.8177 5.83347 23.9025C6.07563 23.9874 6.33448 24.0129 6.58847 23.977C6.84245 23.9411 7.0842 23.8447 7.29359 23.696C6.95901 23.6796 6.63786 23.5589 6.37487 23.3506C6.11188 23.1423 5.92015 22.8568 5.8264 22.534Z" fill="#00ADB5"/>
<path d="M51.3181 29.815C51.287 29.7025 51.2341 29.5974 51.1624 29.5055C51.0907 29.4136 51.0017 29.3368 50.9005 29.2795C50.7992 29.2222 50.6877 29.1855 50.5723 29.1715C50.4569 29.1575 50.3399 29.1665 50.228 29.1979L40.5124 31.9261L39.4661 32.2199H46.0367L47.0831 31.9261L50.705 30.9095C50.9308 30.8458 51.1222 30.6948 51.2371 30.4896C51.3521 30.2844 51.3812 30.0417 51.3181 29.815Z" fill="white"/>
<path d="M44.4445 27.7773C44.3812 27.5505 44.2308 27.3583 44.0264 27.2429C43.8219 27.1274 43.5802 27.0982 43.3543 27.1617L28.7759 31.2547C28.5722 31.3127 28.3958 31.4418 28.2785 31.6188C28.1613 31.7957 28.1108 32.009 28.1364 32.22H31.9105L32.9582 31.9261L43.8314 28.8733C44.0573 28.8094 44.2488 28.6581 44.3638 28.4526C44.4787 28.2471 44.5078 28.0042 44.4445 27.7773Z" fill="white"/>
<path d="M81.9756 31.9258H11.2931C11.0215 31.9261 10.7611 32.0345 10.569 32.2273C10.377 32.4201 10.269 32.6815 10.2687 32.9542V74.9716C10.269 75.2442 10.377 75.5056 10.569 75.6984C10.7611 75.8912 11.0215 75.9997 11.2931 76H81.9756C82.2472 75.9997 82.5076 75.8912 82.6996 75.6984C82.8916 75.5056 82.9997 75.2442 83 74.9716V32.9542C82.9996 32.6815 82.8916 32.4201 82.6996 32.2273C82.5075 32.0346 82.2472 31.9261 81.9756 31.9258ZM82.7073 74.9716C82.7072 75.1664 82.6301 75.3532 82.4929 75.4909C82.3557 75.6286 82.1696 75.7061 81.9756 75.7061H11.2931C11.099 75.7061 10.913 75.6286 10.7757 75.4909C10.6385 75.3532 10.5614 75.1664 10.5614 74.9716V32.9542C10.5614 32.7594 10.6386 32.5726 10.7758 32.4349C10.913 32.2971 11.099 32.2197 11.2931 32.2196H81.9756C82.1696 32.2197 82.3557 32.2971 82.4929 32.4349C82.6301 32.5726 82.7072 32.7594 82.7073 32.9542V74.9716Z" fill="#EEEEEE"/>
<path d="M18.1705 37.6558C17.8232 37.6558 17.4837 37.5524 17.1949 37.3587C16.9061 37.165 16.681 36.8897 16.5481 36.5675C16.4152 36.2454 16.3804 35.8909 16.4482 35.5489C16.5159 35.2069 16.6832 34.8928 16.9288 34.6462C17.1744 34.3997 17.4873 34.2318 17.8279 34.1638C18.1686 34.0957 18.5217 34.1306 18.8425 34.2641C19.1634 34.3975 19.4377 34.6235 19.6306 34.9134C19.8236 35.2033 19.9266 35.5442 19.9266 35.8928C19.9261 36.3603 19.7409 36.8084 19.4117 37.1389C19.0825 37.4694 18.6361 37.6553 18.1705 37.6558ZM18.1705 34.4237C17.8811 34.4237 17.5981 34.5099 17.3575 34.6713C17.1168 34.8327 16.9293 35.0622 16.8185 35.3306C16.7077 35.5991 16.6788 35.8945 16.7352 36.1795C16.7917 36.4645 16.9311 36.7262 17.1357 36.9317C17.3404 37.1372 17.6011 37.2771 17.885 37.3338C18.1689 37.3904 18.4631 37.3614 18.7305 37.2502C18.9979 37.139 19.2265 36.9507 19.3873 36.7091C19.5481 36.4675 19.6339 36.1834 19.6339 35.8928C19.6335 35.5033 19.4792 35.1299 19.2048 34.8545C18.9305 34.5791 18.5585 34.4241 18.1705 34.4237Z" fill="#00ADB5"/>
<path d="M15.441 35.8928C15.4411 35.5566 15.5456 35.2287 15.7401 34.9548C15.9345 34.681 16.2092 34.4749 16.5258 34.3652C16.2834 34.2812 16.0244 34.2566 15.7706 34.2934C15.5167 34.3303 15.2753 34.4274 15.0665 34.5769C14.8576 34.7264 14.6874 34.9238 14.5699 35.1527C14.4524 35.3816 14.3911 35.6354 14.3911 35.8928C14.3911 36.1503 14.4524 36.4041 14.5699 36.633C14.6874 36.8619 14.8576 37.0593 15.0665 37.2088C15.2753 37.3582 15.5167 37.4554 15.7706 37.4923C16.0244 37.5291 16.2834 37.5045 16.5258 37.4205C16.2092 37.3108 15.9345 37.1047 15.7401 36.8309C15.5456 36.557 15.4411 36.2291 15.441 35.8928Z" fill="#00ADB5"/>
<path d="M25.2891 56.722C24.9399 56.7216 24.6052 56.5821 24.3582 56.3343C24.1113 56.0864 23.9724 55.7503 23.972 55.3997V51.4331C23.972 51.0824 24.1108 50.7461 24.3578 50.4981C24.6048 50.2501 24.9398 50.1108 25.2891 50.1108C25.6384 50.1108 25.9734 50.2501 26.2204 50.4981C26.4674 50.7461 26.6062 51.0824 26.6062 51.4331V55.3997C26.6058 55.7503 26.4669 56.0864 26.22 56.3342C25.9731 56.5821 25.6383 56.7216 25.2891 56.722Z" fill="#00ADB5"/>
<path d="M28.8013 56.722C28.4521 56.7216 28.1174 56.5821 27.8705 56.3343C27.6235 56.0864 27.4847 55.7503 27.4843 55.3997V51.4331C27.4843 51.0824 27.623 50.7461 27.87 50.4981C28.117 50.2501 28.452 50.1108 28.8013 50.1108C29.1506 50.1108 29.4856 50.2501 29.7326 50.4981C29.9796 50.7461 30.1184 51.0824 30.1184 51.4331V55.3997C30.118 55.7503 29.9791 56.0864 29.7322 56.3342C29.4853 56.5821 29.1505 56.7216 28.8013 56.722Z" fill="#00ADB5"/>
<path d="M32.3134 56.722C31.9642 56.7216 31.6295 56.5821 31.3825 56.3343C31.1356 56.0864 30.9967 55.7503 30.9963 55.3997V51.4331C30.9963 51.0824 31.1351 50.7461 31.3821 50.4981C31.6291 50.2501 31.9641 50.1108 32.3134 50.1108C32.6627 50.1108 32.9977 50.2501 33.2447 50.4981C33.4917 50.7461 33.6305 51.0824 33.6305 51.4331V55.3997C33.6301 55.7503 33.4912 56.0864 33.2443 56.3342C32.9974 56.5821 32.6626 56.7216 32.3134 56.722Z" fill="#00ADB5"/>
<path d="M37.7281 56.722C37.3789 56.7216 37.0441 56.5821 36.7972 56.3343C36.5503 56.0864 36.4114 55.7503 36.411 55.3997V51.4331C36.411 51.0824 36.5498 50.7461 36.7968 50.4981C37.0438 50.2501 37.3788 50.1108 37.7281 50.1108C38.0774 50.1108 38.4124 50.2501 38.6594 50.4981C38.9064 50.7461 39.0451 51.0824 39.0451 51.4331V55.3997C39.0447 55.7503 38.9059 56.0864 38.6589 56.3342C38.412 56.5821 38.0773 56.7216 37.7281 56.722Z" fill="#00ADB5"/>
<path d="M41.2403 56.722C40.8911 56.7216 40.5563 56.5821 40.3094 56.3343C40.0625 56.0864 39.9236 55.7503 39.9232 55.3997V51.4331C39.9232 51.0824 40.062 50.7461 40.309 50.4981C40.556 50.2501 40.891 50.1108 41.2403 50.1108C41.5896 50.1108 41.9246 50.2501 42.1716 50.4981C42.4186 50.7461 42.5573 51.0824 42.5573 51.4331V55.3997C42.5569 55.7503 42.4181 56.0864 42.1711 56.3342C41.9242 56.5821 41.5895 56.7216 41.2403 56.722Z" fill="#00ADB5"/>
<path d="M44.7524 56.722C44.4032 56.7216 44.0684 56.5821 43.8215 56.3343C43.5746 56.0864 43.4357 55.7503 43.4353 55.3997V51.4331C43.4353 51.0824 43.5741 50.7461 43.8211 50.4981C44.0681 50.2501 44.4031 50.1108 44.7524 50.1108C45.1017 50.1108 45.4367 50.2501 45.6837 50.4981C45.9307 50.7461 46.0694 51.0824 46.0694 51.4331V55.3997C46.069 55.7503 45.9301 56.0864 45.6832 56.3342C45.4363 56.5821 45.1016 56.7216 44.7524 56.722Z" fill="#00ADB5"/>
<path d="M50.167 56.722C49.8179 56.7216 49.4831 56.5821 49.2362 56.3343C48.9893 56.0864 48.8504 55.7503 48.85 55.3997V51.4331C48.85 51.0824 48.9887 50.7461 49.2357 50.4981C49.4827 50.2501 49.8177 50.1108 50.167 50.1108C50.5163 50.1108 50.8513 50.2501 51.0983 50.4981C51.3453 50.7461 51.4841 51.0824 51.4841 51.4331V55.3997C51.4837 55.7503 51.3448 56.0864 51.0979 56.3342C50.851 56.5821 50.5162 56.7216 50.167 56.722Z" fill="#00ADB5"/>
<path d="M53.6791 56.722C53.3299 56.7216 52.9952 56.5821 52.7483 56.3343C52.5014 56.0864 52.3625 55.7503 52.3621 55.3997V51.4331C52.3621 51.0824 52.5008 50.7461 52.7478 50.4981C52.9948 50.2501 53.3298 50.1108 53.6791 50.1108C54.0284 50.1108 54.3634 50.2501 54.6104 50.4981C54.8574 50.7461 54.9962 51.0824 54.9962 51.4331V55.3997C54.9958 55.7503 54.8569 56.0864 54.61 56.3342C54.3631 56.5821 54.0283 56.7216 53.6791 56.722Z" fill="#00ADB5"/>
<path d="M57.1913 56.722C56.8421 56.7216 56.5074 56.5821 56.2605 56.3343C56.0136 56.0864 55.8747 55.7503 55.8743 55.3997V51.4331C55.8743 51.0824 56.013 50.7461 56.26 50.4981C56.507 50.2501 56.842 50.1108 57.1913 50.1108C57.5406 50.1108 57.8756 50.2501 58.1226 50.4981C58.3696 50.7461 58.5084 51.0824 58.5084 51.4331V55.3997C58.508 55.7503 58.3691 56.0864 58.1222 56.3342C57.8753 56.5821 57.5405 56.7216 57.1913 56.722Z" fill="#00ADB5"/>
<path d="M62.6059 56.722C62.2567 56.7216 61.9219 56.5821 61.675 56.3343C61.4281 56.0864 61.2892 55.7503 61.2888 55.3997V51.4331C61.2888 51.0824 61.4276 50.7461 61.6746 50.4981C61.9216 50.2501 62.2566 50.1108 62.6059 50.1108C62.9552 50.1108 63.2902 50.2501 63.5372 50.4981C63.7842 50.7461 63.9229 51.0824 63.9229 51.4331V55.3997C63.9225 55.7503 63.7837 56.0864 63.5367 56.3342C63.2898 56.5821 62.9551 56.7216 62.6059 56.722Z" fill="#00ADB5"/>
<path d="M66.1181 56.722C65.7689 56.7216 65.4341 56.5821 65.1872 56.3343C64.9403 56.0864 64.8014 55.7503 64.801 55.3997V51.4331C64.801 51.0824 64.9398 50.7461 65.1868 50.4981C65.4338 50.2501 65.7688 50.1108 66.1181 50.1108C66.4674 50.1108 66.8024 50.2501 67.0494 50.4981C67.2964 50.7461 67.4352 51.0824 67.4352 51.4331V55.3997C67.4348 55.7503 67.2959 56.0864 67.049 56.3342C66.802 56.5821 66.4673 56.7216 66.1181 56.722Z" fill="#00ADB5"/>
<path d="M69.6303 56.722C69.2811 56.7216 68.9464 56.5821 68.6994 56.3343C68.4525 56.0864 68.3136 55.7503 68.3132 55.3997V51.4331C68.3132 51.0824 68.452 50.7461 68.699 50.4981C68.946 50.2501 69.281 50.1108 69.6303 50.1108C69.9796 50.1108 70.3146 50.2501 70.5616 50.4981C70.8086 50.7461 70.9474 51.0824 70.9474 51.4331V55.3997C70.947 55.7503 70.8081 56.0864 70.5612 56.3342C70.3143 56.5821 69.9795 56.7216 69.6303 56.722Z" fill="#00ADB5"/>
<path d="M34.2186 71.4379H15.2762C15.0415 71.4379 14.8164 71.3443 14.6504 71.1777C14.4845 71.0111 14.3912 70.7851 14.3912 70.5495C14.3912 70.3138 14.4845 70.0878 14.6504 69.9212C14.8164 69.7546 15.0415 69.661 15.2762 69.661H34.2186C34.4533 69.661 34.6784 69.7546 34.8443 69.9212C35.0103 70.0878 35.1035 70.3138 35.1035 70.5495C35.1035 70.7851 35.0103 71.0111 34.8443 71.1777C34.6784 71.3443 34.4533 71.4379 34.2186 71.4379Z" fill="white"/>
<path d="M28.1454 67.6181H21.3493C21.1146 67.6181 20.8895 67.5245 20.7236 67.3579C20.5576 67.1913 20.4644 66.9653 20.4644 66.7297C20.4644 66.4941 20.5576 66.2681 20.7236 66.1015C20.8895 65.9349 21.1146 65.8412 21.3493 65.8412H28.1454C28.3801 65.8412 28.6052 65.9349 28.7712 66.1015C28.9372 66.2681 29.0304 66.4941 29.0304 66.7297C29.0304 66.9653 28.9372 67.1913 28.7712 67.3579C28.6052 67.5245 28.3801 67.6181 28.1454 67.6181Z" fill="white"/>
<path d="M82.6545 40.7084H10.5087V41.0022H82.6545V40.7084Z" fill="#EEEEEE"/>
</g>
<defs>
<clipPath id="clip0_277_270">
<rect width="83" height="76" fill="white"/>
</clipPath>
</defs>
</svg>
