<!DOCTYPE svg PUBLIC "-//W3C//DTD SVG 1.1//EN" "http://www.w3.org/Graphics/SVG/1.1/DTD/svg11.dtd">
<!-- Uploaded to: SVG Repo, www.svgrepo.com, Transformed by: SVG Repo Mixer Tools -->
<svg fill="#B8B9BC" height="64px" width="64px" version="1.1" id="Layer_1" xmlns="http://www.w3.org/2000/svg" xmlns:xlink="http://www.w3.org/1999/xlink" viewBox="0 0 512 512" xml:space="preserve">
<g id="SVGRepo_bgCarrier" stroke-width="0"/>
<g id="SVGRepo_tracerCarrier" stroke-linecap="round" stroke-linejoin="round"/>
<g id="SVGRepo_iconCarrier"> <g transform="translate(0 -1)"> <g> <g> <path d="M435.2,30.867H76.8c-42.351,0-76.8,34.449-76.8,76.8v8.533h34.133v341.333c0,14.114,11.486,25.6,25.6,25.6 s25.6-11.486,25.6-25.6V116.2h162.133v358.4c0,4.719,3.814,8.533,8.533,8.533s8.533-3.814,8.533-8.533V116.2h162.133v341.333 c0,14.114,11.486,25.6,25.6,25.6c14.114,0,25.6-11.486,25.6-25.6V116.2H512v-8.533C512,65.316,477.551,30.867,435.2,30.867z"/> <path d="M213.333,356.703v-53.666c0-8.917-7.253-16.171-16.171-16.171h-52.992c-8.917,0-16.171,7.253-16.171,16.171v53.666 c-9.907,3.533-17.067,12.919-17.067,24.03c0,11.11,7.159,20.497,17.067,24.03V449c0,4.719,3.814,8.533,8.533,8.533 s8.533-3.814,8.533-8.533v-42.667h51.2V449c0,4.719,3.814,8.533,8.533,8.533s8.533-3.814,8.533-8.533v-44.237 c9.907-3.533,17.067-12.919,17.067-24.03C230.4,369.623,223.241,360.236,213.333,356.703z M204.8,389.267h-68.267 c-4.71,0-8.533-3.823-8.533-8.533c0-4.71,3.823-8.533,8.533-8.533H204.8c4.71,0,8.533,3.823,8.533,8.533 C213.333,385.444,209.51,389.267,204.8,389.267z"/> <path d="M384,356.703v-53.666c0-8.917-7.253-16.171-16.171-16.171h-52.992c-8.917,0-16.171,7.253-16.171,16.171v53.666 c-9.907,3.533-17.067,12.919-17.067,24.03c0,11.11,7.159,20.497,17.067,24.03V449c0,4.719,3.814,8.533,8.533,8.533 s8.533-3.814,8.533-8.533v-42.667h51.2V449c0,4.719,3.814,8.533,8.533,8.533S384,453.719,384,449v-44.237 c9.907-3.533,17.067-12.919,17.067-24.03C401.067,369.623,393.907,360.236,384,356.703z M375.467,389.267H307.2 c-4.71,0-8.533-3.823-8.533-8.533c0-4.71,3.823-8.533,8.533-8.533h68.267c4.71,0,8.533,3.823,8.533,8.533 C384,385.444,380.177,389.267,375.467,389.267z"/> <path d="M213.333,227.133c4.719,0,8.533-3.814,8.533-8.533v-68.267c0-4.719-3.814-8.533-8.533-8.533h-93.867 c-4.719,0-8.533,3.814-8.533,8.533V218.6c0,4.719,3.814,8.533,8.533,8.533H213.333z"/> <path d="M392.533,141.8h-93.867c-4.719,0-8.533,3.814-8.533,8.533V218.6c0,4.719,3.814,8.533,8.533,8.533h93.867 c4.719,0,8.533-3.814,8.533-8.533v-68.267C401.067,145.614,397.252,141.8,392.533,141.8z"/> </g> </g> </g> </g>
</svg>