<!DOCTYPE svg PUBLIC "-//W3C//DTD SVG 1.1//EN" "http://www.w3.org/Graphics/SVG/1.1/DTD/svg11.dtd">
<!-- Uploaded to: SVG Repo, www.svgrepo.com, Transformed by: SVG Repo Mixer Tools -->
<svg width="800px" height="800px" viewBox="0 0 24 24" fill="none" xmlns="http://www.w3.org/2000/svg" stroke="#ffffff">
<g id="SVGRepo_bgCarrier" stroke-width="0"/>
<g id="SVGRepo_tracerCarrier" stroke-linecap="round" stroke-linejoin="round"/>
<g id="SVGRepo_iconCarrier">
<path d="M3 10L3 8C3 6.89543 3.89543 6 5 6L7 6M3 10C4.33333 10 7 9.2 7 6M3 10L3 14M21 10V8C21 6.89543 20.1046 6 19 6H17M21 10C19.6667 10 17 9.2 17 6M21 10V12M7 6L17 6M3 14L3 16C3 17.1046 3.89543 18 5 18H7M3 14C4.33333 14 7 14.8 7 18M7 18H11" stroke="#ffffff" stroke-linecap="round" stroke-linejoin="round" stroke-width="2"/>
<circle cx="12" cy="12" r="2" stroke="#ffffff" stroke-linecap="round" stroke-linejoin="round" stroke-width="2"/>
<path d="M18 15V18M18 21V18M18 18H15M18 18H21" stroke="#ffffff" stroke-linecap="round" stroke-linejoin="round" stroke-width="2"/>
</g>
</svg>